# xmcd
#
# Track frame offsets:
#   150
#   25768
#   50394
#   70735
#   98224
#   119344
#   147373
#   165154
#   187231
#   211287
#
# Disc length: 3136 seconds
#
# Revision: 0
# Processed by: cddbd v1.5.2PL0 Copyright (c) Steve Scherf et al.
# Submitted via: uFREEDB ActiveX Control 1.5
#
DISCID=880c3e0a
DTITLE=Ludmila Ferber - Para orar e adorar 2 - o segredo de ser feliz
DYEAR=1900
DGENRE=Gospel and Religious
TTITLE0=O segredo de ser feliz
TTITLE1=Diz pra mim
TTITLE2=Me constrange
TTITLE3=Eu te amo
TTITLE4=Jesus minha estrela
TTITLE5=Anelos
TTITLE6=Te adorar
TTITLE7=Orar e adorar
TTITLE8=Perto está o Senhor
TTITLE9=Nossa nação aos teus pés
EXTD=
EXTT0=
EXTT1=
EXTT2=
EXTT3=
EXTT4=
EXTT5=
EXTT6=
EXTT7=
EXTT8=
EXTT9=
PLAYORDER=
